<svg xmlns="http://www.w3.org/2000/svg" viewBox="0 0 128 128" width="128" height="128">
  <rect width="128" height="128" rx="24" fill="#0a0e14"/>
  <g transform="translate(8,8) scale(2)">
    <path d="M16 52 L16 36 C16 26 21 18 26 15 L26 7 C26 7 24 10 22 10 C20 10 19.5 7 19.5 7 L19.5 15 C17 18 13 26 13 36 L13 52"
      stroke="#fb923c" stroke-width="1.3" stroke-linecap="round" stroke-linejoin="round" opacity="0.75"/>
    <path d="M19.5 7 L17 2" stroke="#fb923c" stroke-width="1.1" stroke-linecap="round" opacity="0.6"/>
    <path d="M26 7 L28.5 3" stroke="#fb923c" stroke-width="1.1" stroke-linecap="round" opacity="0.6"/>
    <circle cx="21" cy="18" r="1.5" fill="#fb923c" opacity="0.8"/>
    <path d="M17 23 C17 23 18.5 25 21 24" stroke="#fb923c" stroke-width="0.8" stroke-linecap="round" opacity="0.5"/>
    <rect x="30" y="10" width="20" height="14" rx="4" stroke="#fb923c" stroke-width="1" opacity="0.65" fill="rgba(251,146,60,0.07)"/>
    <path d="M30 19 L26 23 L30 21" fill="#fb923c" opacity="0.15" stroke="#fb923c" stroke-width="0.7"/>
    <line x1="40" y1="14.5" x2="40" y2="19.5" stroke="#fb923c" stroke-width="2" stroke-linecap="round" opacity="0.7"/>
    <circle cx="40" cy="22" r="1.1" fill="#fb923c" opacity="0.7"/>
  </g>
</svg>
