<svg xmlns="http://www.w3.org/2000/svg" width="960" height="320" viewBox="0 0 960 320" role="img" aria-label="Ollama Says Flow">
<rect width="960" height="320" fill="#0d1117"/>
<rect x="24" y="24" width="912" height="272" rx="18" fill="#161b22" stroke="#30363d"/>
<text x="48" y="64" font-family="Inter, Segoe UI, sans-serif" font-size="18" fill="#e6edf3">Ollama Says Flow</text>
<rect x="40" y="120" width="200" height="64" rx="12" fill="#0b0f14" stroke="#30363d"/>
<text x="56" y="158" font-family="Inter, Segoe UI, sans-serif" font-size="14" fill="#8b949e">Prompt Suite</text>
<line x1="244" y1="152.0" x2="260" y2="152.0" stroke="#30363d" stroke-width="2"/>
<polygon points="256,147.0 256,157.0 264,152.0" fill="#30363d"/>
<rect x="264" y="120" width="200" height="64" rx="12" fill="#0b0f14" stroke="#30363d"/>
<text x="280" y="158" font-family="Inter, Segoe UI, sans-serif" font-size="14" fill="#8b949e">Evaluator</text>
<line x1="468" y1="152.0" x2="484" y2="152.0" stroke="#30363d" stroke-width="2"/>
<polygon points="480,147.0 480,157.0 488,152.0" fill="#30363d"/>
<rect x="488" y="120" width="200" height="64" rx="12" fill="#0b0f14" stroke="#30363d"/>
<text x="504" y="158" font-family="Inter, Segoe UI, sans-serif" font-size="14" fill="#8b949e">Scoring + Signals</text>
<line x1="692" y1="152.0" x2="708" y2="152.0" stroke="#30363d" stroke-width="2"/>
<polygon points="704,147.0 704,157.0 712,152.0" fill="#30363d"/>
<rect x="712" y="120" width="200" height="64" rx="12" fill="#0b0f14" stroke="#30363d"/>
<text x="728" y="158" font-family="Inter, Segoe UI, sans-serif" font-size="14" fill="#8b949e">Reports</text>
</svg>
